<svg width="242" height="56" viewBox="0 0 242 56" fill="none" xmlns="http://www.w3.org/2000/svg">
<path d="M231.12 19.7787L223.032 23.7723C222.593 23.1222 222.019 22.6116 221.313 22.2403C220.601 21.8549 219.79 21.6526 218.88 21.6335C217.979 21.5942 217.004 21.7949 215.954 22.2354C214.549 22.8248 213.488 23.6199 212.773 24.6208C212.052 25.6076 211.897 26.5905 212.308 27.5698C212.636 28.3504 213.225 28.8794 214.075 29.1567C214.926 29.4341 216.179 29.4175 217.835 29.1069L224.253 27.8165C227.706 27.1358 230.517 27.1918 232.685 27.9846C234.853 28.7774 236.432 30.3517 237.42 32.7076C238.319 34.8507 238.476 36.9961 237.892 39.1439C237.321 41.2857 236.134 43.2692 234.329 45.0943C232.533 46.8993 230.216 48.3971 227.377 49.5878C223.048 51.4036 219.222 51.949 215.897 51.2241C212.58 50.4791 210.047 48.6377 208.297 45.6999L217.021 41.4899C217.844 42.6967 218.92 43.4305 220.247 43.6913C221.569 43.938 223.039 43.722 224.657 43.0433C226.246 42.3765 227.396 41.5356 228.105 40.5205C228.822 39.4852 228.983 38.475 228.586 37.4897C228.226 36.6725 227.596 36.1443 226.694 35.9049C225.787 35.6514 224.564 35.6803 223.026 35.9918L216.89 37.2389C213.429 37.9398 210.587 37.8299 208.365 36.9094C206.157 35.983 204.541 34.2992 203.517 31.8581C202.636 29.7577 202.445 27.71 202.943 25.7152C203.456 23.7144 204.576 21.8678 206.302 20.1754C208.043 18.4771 210.312 17.0416 213.108 15.8688C217.238 14.1363 220.854 13.6459 223.956 14.3973C227.073 15.1428 229.461 16.9366 231.12 19.7787Z" fill="black"/>
<path d="M180.843 48.8298L185.446 13.6702L194.9 14.9078L194.097 21.0425L194.463 21.0904C195.39 18.9921 196.681 17.4848 198.338 16.5686C199.996 15.6371 201.81 15.3002 203.778 15.558C204.267 15.6219 204.789 15.7213 205.346 15.8563C205.903 15.9913 206.388 16.1401 206.801 16.3029L205.668 24.9554C205.228 24.7581 204.611 24.5532 203.816 24.3405C203.021 24.1278 202.288 23.9775 201.617 23.8895C200.182 23.7018 198.859 23.8468 197.648 24.3246C196.454 24.7892 195.457 25.5279 194.657 26.5407C193.873 27.5556 193.386 28.7802 193.199 30.2147L190.594 50.1064L180.843 48.8298Z" fill="black"/>
<path d="M167.753 50.6142C164.172 51.3058 160.949 51.1757 158.085 50.224C155.233 49.2543 152.853 47.5663 150.947 45.1601C149.037 42.7387 147.728 39.692 147.018 36.02C146.327 32.4386 146.415 29.1612 147.283 26.1878C148.151 23.2145 149.701 20.7285 151.932 18.7301C154.179 16.7287 157.01 15.3983 160.426 14.7388C162.722 14.2953 164.932 14.2526 167.055 14.6108C169.19 14.951 171.139 15.711 172.903 16.8908C174.682 18.0677 176.201 19.6866 177.462 21.7474C178.719 23.7932 179.633 26.297 180.205 29.2588L180.717 31.9108L151.318 37.5879L150.163 31.6038L170.472 27.682C170.204 26.2917 169.664 25.1185 168.852 24.1623C168.041 23.2062 167.04 22.5294 165.85 22.1322C164.673 21.7169 163.381 21.6449 161.976 21.9163C160.51 22.1993 159.276 22.7903 158.274 23.6891C157.285 24.57 156.582 25.6383 156.166 26.8943C155.747 28.135 155.663 29.4445 155.913 30.8225L157.012 36.5119C157.345 38.2346 157.95 39.6618 158.826 40.7935C159.718 41.9222 160.819 42.7128 162.129 43.1652C163.439 43.6176 164.903 43.6877 166.52 43.3755C167.593 43.1683 168.546 42.8275 169.379 42.3531C170.212 41.8787 170.888 41.278 171.406 40.551C171.924 39.824 172.264 38.9901 172.427 38.0495L181.472 36.9143C181.433 39.1476 180.865 41.2009 179.769 43.0741C178.686 44.9292 177.127 46.5156 175.093 47.8332C173.071 49.1327 170.624 50.0597 167.753 50.6142Z" fill="black"/>
<path d="M123.908 39.7622L124.519 27.9813L125.949 28.0527L137.964 15.1772L149.239 15.7404L133.109 32.779L130.781 32.6627L123.908 39.7622ZM114.499 49.5088L116.858 2.28821L126.68 2.77887L124.321 49.9995L114.499 49.5088ZM136.633 50.6145L126.982 34.6688L133.877 28.0558L148.139 51.1893L136.633 50.6145Z" fill="black"/>
<path d="M88.7515 30.4685L90.578 50.8871L80.7826 51.7633L77.6232 16.4447L86.9587 15.6096L87.5161 21.841L87.93 21.8039C88.528 19.6799 89.6933 17.9377 91.4259 16.5775C93.1571 15.2019 95.3333 14.3969 97.9546 14.1624C100.407 13.943 102.594 14.2882 104.514 15.1981C106.434 16.1079 107.989 17.514 109.179 19.4163C110.368 21.3033 111.085 23.6187 111.33 26.3627L113.342 48.8507L103.547 49.7269L101.691 28.9865C101.513 26.8237 100.81 25.1868 99.5831 24.0759C98.3544 22.9497 96.7589 22.4743 94.7968 22.6499C93.4785 22.7678 92.3388 23.1556 91.3778 23.8133C90.4322 24.4696 89.7244 25.3673 89.2546 26.5064C88.7987 27.6288 88.631 28.9495 88.7515 30.4685Z" fill="black"/>
<path d="M55.1913 50.6333C51.691 49.8539 48.8296 48.4362 46.6069 46.3803C44.4026 44.3127 42.9072 41.788 42.1205 38.8063C41.3372 35.8095 41.3403 32.5384 42.1298 28.9931C42.9259 25.4178 44.3128 22.447 46.2903 20.0807C48.2711 17.6994 50.6966 16.0479 53.5665 15.126C56.4549 14.1924 59.6492 14.1153 63.1494 14.8947C66.6497 15.6742 69.5019 17.0977 71.7062 19.1653C73.9289 21.2212 75.4318 23.7475 76.2151 26.7443C77.0018 29.7261 76.997 33.0046 76.2008 36.58C75.4114 40.1253 74.0262 43.0886 72.0454 45.4699C70.0679 47.8361 67.6349 49.486 64.7466 50.4196C61.8766 51.3415 58.6915 51.4127 55.1913 50.6333ZM56.8922 43.2072C58.4846 43.5618 59.9144 43.4072 61.1817 42.7433C62.4524 42.0645 63.5337 40.9965 64.4258 39.5396C65.3329 38.086 66.0105 36.3527 66.4588 34.3397C66.907 32.3267 67.0289 30.4696 66.8243 28.7685C66.6347 27.0707 66.1087 25.6448 65.2461 24.491C64.3836 23.3371 63.1561 22.5828 61.5637 22.2283C59.9563 21.8703 58.5023 22.0274 57.2016 22.6996C55.9159 23.3751 54.8195 24.4397 53.9124 25.8933C53.0204 27.3502 52.3502 29.0852 51.902 31.0982C51.4537 33.1112 51.3244 34.9666 51.5139 36.6644C51.7185 38.3656 52.2596 39.7947 53.1372 40.952C54.0331 42.0975 55.2848 42.8493 56.8922 43.2072Z" fill="black"/>
<path d="M9.207 53.4774L0 7.10303L18.5679 3.41663C21.9795 2.7393 24.9255 2.68006 27.4057 3.23892C29.886 3.79778 31.8781 4.86153 33.3821 6.43015C34.883 7.98368 35.8642 9.92282 36.3258 12.2476C36.6854 14.0591 36.6393 15.7236 36.1875 17.2412C35.7326 18.7437 34.9581 20.0586 33.8638 21.1859C32.7817 22.2951 31.469 23.1912 29.9257 23.8742L30.0156 24.3271C31.7968 24.0519 33.5487 24.2219 35.2713 24.837C37.009 25.4492 38.5257 26.4896 39.8215 27.9583C41.1143 29.412 41.987 31.2785 42.4396 33.558C42.9281 36.0186 42.7528 38.3364 41.9136 40.5114C41.0866 42.6684 39.599 44.5407 37.4507 46.1283C35.3024 47.7159 32.4923 48.8544 29.0203 49.5437L9.207 53.4774ZM17.4203 43.5149L25.4135 41.928C28.1459 41.3855 30.0351 40.4691 31.0813 39.1787C32.1244 37.8732 32.4722 36.3449 32.1245 34.5938C31.8698 33.3107 31.3355 32.2399 30.5218 31.3816C29.708 30.5232 28.6721 29.9287 27.4139 29.5979C26.1708 29.2642 24.7643 29.2531 23.1944 29.5648L14.9747 31.1967L17.4203 43.5149ZM13.6575 24.5621L20.9261 23.119C22.2696 22.8523 23.4157 22.3815 24.3644 21.7068C25.3252 21.0139 26.0207 20.1697 26.4507 19.1743C26.8958 18.1759 26.9969 17.0653 26.7542 15.8425C26.4215 14.1669 25.557 12.9342 24.1606 12.1444C22.7793 11.3517 21.0018 11.1711 18.828 11.6027L11.3782 13.0817L13.6575 24.5621Z" fill="black"/>
</svg>
