<svg width="113" height="43" viewBox="0 0 113 43" fill="none" xmlns="http://www.w3.org/2000/svg">
<path d="M96.7015 42.712L108.673 15.8306H112.444L100.736 42.712H96.7015ZM101.174 34.117L92.4478 15.8306H97.0523L104.376 32.0559L101.174 34.117Z" fill="black"/>
<path d="M79.6457 34.424C77.9501 34.424 76.4006 34.0586 74.9973 33.3277C73.6233 32.5969 72.527 31.5298 71.7084 30.1265C70.9191 28.694 70.5244 26.9545 70.5244 24.9081C70.5244 22.8909 70.9483 21.1514 71.7961 19.6897C72.6439 18.1987 73.7695 17.0586 75.1728 16.2692C76.6053 15.4799 78.1693 15.0852 79.8649 15.0852C81.5606 15.0852 82.9931 15.4799 84.1625 16.2692C85.3319 17.0293 86.2235 17.9356 86.8375 18.9881L86.5743 19.6897L86.969 15.8307H90.7403V33.9855H86.662V29.2495L87.1006 30.3019C86.9836 30.5943 86.7205 30.9743 86.3112 31.4421C85.9312 31.8806 85.4049 32.3338 84.7325 32.8015C84.0894 33.2693 83.3439 33.6639 82.4961 33.9855C81.6483 34.2779 80.6981 34.424 79.6457 34.424ZM80.742 31.0474C81.7652 31.0474 82.6861 30.8574 83.5047 30.4773C84.3233 30.0973 84.9957 29.5711 85.5219 28.8987C86.0773 28.197 86.4574 27.3638 86.662 26.3991V22.8471C86.4282 21.97 86.0189 21.2099 85.4342 20.5667C84.8495 19.8943 84.1478 19.3827 83.3293 19.0319C82.5107 18.6519 81.6044 18.4618 80.6104 18.4618C79.5287 18.4618 78.5348 18.7249 77.6285 19.2512C76.7222 19.7774 75.9913 20.5083 75.4359 21.4438C74.9096 22.3793 74.6465 23.4756 74.6465 24.7327C74.6465 25.9021 74.9243 26.9692 75.4797 27.9339C76.0352 28.8987 76.7807 29.6588 77.7162 30.2142C78.6517 30.7697 79.6603 31.0474 80.742 31.0474Z" fill="black"/>
<path d="M53.1935 33.9856V0.0439453H57.2718V33.9856H53.1935ZM61.657 21.9262L69.9889 33.9856H65.209L58.9382 24.2065L61.657 21.9262ZM56.0001 28.1971L55.6054 24.2942L66.6123 15.4361L69.1119 17.5848L56.0001 28.1971Z" fill="black"/>
<path d="M43.0536 34.3364C41.7673 34.3364 40.5102 34.1171 39.2823 33.6786C38.0837 33.2108 37.0897 32.5238 36.3004 31.6175L38.0106 29.2495C38.7707 29.9804 39.5455 30.5358 40.3348 30.9159C41.1534 31.2667 41.9573 31.4421 42.7467 31.4421C43.3314 31.4421 43.8722 31.369 44.3692 31.2229C44.8662 31.0767 45.2609 30.8428 45.5532 30.5212C45.8748 30.1704 46.0356 29.7027 46.0356 29.118C46.0356 28.4748 45.8163 27.9632 45.3778 27.5831C44.9685 27.2031 44.4277 26.8961 43.7553 26.6622C43.1121 26.4284 42.4251 26.2091 41.6942 26.0045C40.2032 25.5075 39.0631 24.8204 38.2737 23.9434C37.4844 23.0663 37.0897 21.9993 37.0897 20.7422C37.0897 19.7774 37.3236 18.8858 37.7914 18.0672C38.2884 17.2194 39.0046 16.5324 39.9401 16.0061C40.9049 15.4799 42.0889 15.2168 43.4922 15.2168C44.7493 15.2168 45.8748 15.3776 46.8688 15.6992C47.8628 15.9915 48.7983 16.4885 49.6753 17.1901L48.0528 19.7336C47.5266 19.1781 46.898 18.7688 46.1671 18.5057C45.4363 18.2426 44.7785 18.0964 44.1938 18.0672C43.6968 18.038 43.2144 18.111 42.7467 18.2865C42.3081 18.4619 41.9427 18.7104 41.6504 19.0319C41.358 19.3535 41.2118 19.7336 41.2118 20.1721C41.2118 20.786 41.4165 21.283 41.8258 21.6631C42.2351 22.0431 42.7613 22.3501 43.4045 22.584C44.0769 22.7886 44.7346 23.0079 45.3778 23.2418C46.2841 23.5049 47.088 23.8557 47.7897 24.2942C48.4913 24.7327 49.0468 25.2736 49.4561 25.9167C49.8946 26.5599 50.1138 27.3639 50.1138 28.3286C50.1138 29.4103 49.8507 30.4189 49.3245 31.3544C48.8275 32.2607 48.0528 32.9916 47.0003 33.547C45.9771 34.0733 44.6615 34.3364 43.0536 34.3364Z" fill="black"/>
<path d="M29.4636 15.8306H33.5418V33.9854H29.4636V15.8306ZM29.1566 9.25273C29.1566 8.60956 29.4051 8.06872 29.9021 7.6302C30.4283 7.19167 30.9984 6.97241 31.6123 6.97241C32.2263 6.97241 32.7671 7.19167 33.2349 7.6302C33.7319 8.06872 33.9804 8.60956 33.9804 9.25273C33.9804 9.92513 33.7319 10.4806 33.2349 10.9191C32.7671 11.3284 32.2263 11.533 31.6123 11.533C30.9984 11.533 30.4283 11.3138 29.9021 10.8753C29.4051 10.4367 29.1566 9.8959 29.1566 9.25273Z" fill="black"/>
<path d="M19.2469 15.8305L19.6416 21.0928L19.4224 20.3912C19.8901 19.2803 20.5625 18.3447 21.4396 17.5846C22.3458 16.7953 23.2814 16.196 24.2461 15.7867C25.2401 15.3482 26.1025 15.1289 26.8334 15.1289L26.6141 19.1633C25.2401 19.0756 24.0268 19.3387 22.9744 19.9527C21.9512 20.5666 21.1326 21.3852 20.5187 22.4084C19.934 23.4316 19.6416 24.5279 19.6416 25.6973V33.9854H15.6072V15.8305H19.2469Z" fill="black"/>
<path d="M3.11351 33.9855V19.4704H0V15.8307H3.11351V8.15652C3.11351 5.52538 3.69821 3.50818 4.8676 2.10491C6.06623 0.701636 7.82032 0 10.1299 0C10.7438 0 11.4162 0.0877042 12.1471 0.263113C12.9072 0.438523 13.565 0.730872 14.1204 1.14016L12.4102 4.07826C12.1471 3.81515 11.8547 3.63974 11.5331 3.55203C11.2116 3.43509 10.89 3.37662 10.5684 3.37662C9.4867 3.37662 8.65351 3.74206 8.06881 4.47293C7.48412 5.2038 7.19177 6.44628 7.19177 8.20037V15.8307H12.9364V19.4704H7.19177V33.9855H3.11351Z" fill="black"/>
</svg>
